<?xml version="1.0" encoding="UTF-8"?>
<svg version="1.1" xmlns="http://www.w3.org/2000/svg" width="225" height="225">
<path d="M0 0 C74.25 0 148.5 0 225 0 C225 74.25 225 148.5 225 225 C150.75 225 76.5 225 0 225 C0 150.75 0 76.5 0 0 Z " fill="#020202" transform="translate(0,0)"/>
<path d="M0 0 C74.25 0 148.5 0 225 0 C225 74.25 225 148.5 225 225 C150.75 225 76.5 225 0 225 C0 150.75 0 76.5 0 0 Z M96.8125 14.125 C95.87180664 14.66342529 94.93111328 15.20185059 93.96191406 15.7565918 C90.96083903 17.48178886 87.98035621 19.23929875 85 21 C83.05183395 22.13072194 81.10261922 23.25963905 79.15234375 24.38671875 C75.18039842 26.68775777 71.21803113 29.00422363 67.26171875 31.33203125 C62.86200834 33.91725488 58.44716735 36.47469387 54.01953125 39.01171875 C53.43700592 39.3458931 52.85448059 39.68006744 52.25430298 40.02436829 C49.44331594 41.63667507 46.6307493 43.2460979 43.81542969 44.85083008 C29.78460997 51.89733526 29.78460997 51.89733526 20.38769531 63.74023438 C19.50915165 68.86101532 19.77389197 74.14111395 19.75976562 79.32666016 C19.7500319 81.49289957 19.71896996 83.65820056 19.6875 85.82421875 C19.68097175 87.20572356 19.67572058 88.58723512 19.671875 89.96875 C19.6625293 91.22107422 19.65318359 92.47339844 19.64355469 93.76367188 C20.02014196 97.18287794 20.66758238 98.53979976 23 101 C25.3431213 100.74438677 27.67843403 100.40729228 30 100 C31.31361698 97.37276604 31.21253909 95.27389439 31.31640625 92.3359375 C31.35830078 91.21445313 31.40019531 90.09296875 31.44335938 88.9375 C31.48267578 87.761875 31.52199219 86.58625 31.5625 85.375 C31.60568359 84.19164063 31.64886719 83.00828125 31.69335938 81.7890625 C31.79967426 78.85949672 31.90170642 75.92984412 32 73 C32.83772949 73.47945068 33.67545898 73.95890137 34.53857422 74.45288086 C37.64308027 76.22946764 40.74799189 78.00534454 43.85302734 79.78100586 C45.19753945 80.55001743 46.5419411 81.31922217 47.88623047 82.08862305 C49.81709332 83.19370359 51.74835074 84.29809171 53.6796875 85.40234375 C54.28183075 85.74716293 54.883974 86.09198212 55.50436401 86.44725037 C57.65120217 87.67405636 59.78790029 88.89395014 62 90 C62 102.21 62 114.42 62 127 C57.483125 124.421875 52.96625 121.84375 48.3125 119.1875 C46.89622314 118.37949951 45.47994629 117.57149902 44.02075195 116.73901367 C42.89628662 116.09681885 41.77182129 115.45462402 40.61328125 114.79296875 C40.03429077 114.4628479 39.45530029 114.13272705 38.85876465 113.79260254 C36.30279517 112.33212626 33.77257931 110.85661853 31.28198242 109.28637695 C28.30871005 107.61031275 26.36058991 107.56166219 23 108 C20.85870343 109.59579786 20.09209853 110.48361966 19.61904907 113.13592529 C19.61666229 113.96086487 19.61427551 114.78580444 19.61181641 115.63574219 C19.60235992 116.57391785 19.59290344 117.51209351 19.5831604 118.47869873 C19.58923309 119.4911969 19.59530579 120.50369507 19.6015625 121.546875 C19.59869232 122.5914386 19.59582214 123.6360022 19.59286499 124.71221924 C19.59082218 126.92468812 19.59636714 129.13717497 19.60888672 131.34960938 C19.6248724 134.72307237 19.60907819 138.09532544 19.58984375 141.46875 C19.59182741 143.6197943 19.59567361 145.77083785 19.6015625 147.921875 C19.59548981 148.92627625 19.58941711 149.93067749 19.5831604 150.96551514 C19.64767986 157.45250339 20.21859494 162.48802506 24.3737793 167.73461914 C30.06184921 172.38916207 36.40808071 175.87237867 42.8125 179.4375 C44.05721902 180.13811512 45.30143269 180.83962874 46.54516602 181.54199219 C48.46247361 182.62453887 50.38009834 183.70647766 52.29936218 184.78555298 C58.70844509 188.38932622 65.07441391 192.06560418 71.4375 195.75 C79.61536376 200.4752507 87.80060542 205.18719792 96 209.875 C96.88486084 210.3812793 97.76972168 210.88755859 98.68139648 211.40917969 C99.48778564 211.86969727 100.2941748 212.33021484 101.125 212.8046875 C101.82882813 213.20671387 102.53265625 213.60874023 103.2578125 214.02294922 C108.06532523 216.71909075 112.56027535 216.58588584 118 216 C121.33533661 214.8693543 124.19081271 213.20871411 127.1875 211.375 C128.45980469 210.63672974 128.45980469 210.63672974 129.7578125 209.88354492 C131.57821099 208.82357232 133.39238546 207.75284949 135.20068359 206.67236328 C138.00314905 204.9981187 140.82065511 203.3526822 143.64453125 201.71484375 C147.6145824 199.41066506 151.57694509 197.09398411 155.53515625 194.76953125 C160.14992813 192.06772955 164.78407639 189.40302982 169.43359375 186.76171875 C170.05944366 186.40588211 170.68529358 186.05004547 171.33010864 185.6834259 C174.37515736 183.95291892 177.42235644 182.22635994 180.47265625 180.50512695 C195.02632689 173.33608286 195.02632689 173.33608286 204.61538124 161.07004929 C205.29167717 157.43016987 205.1744173 153.73483478 205.19287109 150.04394531 C205.20513733 148.68709122 205.20513733 148.68709122 205.21765137 147.30282593 C205.24244987 144.31126561 205.25900705 141.31975256 205.2734375 138.328125 C205.28142302 136.79301395 205.28142302 136.79301395 205.28956985 135.22689056 C205.31627709 129.81012217 205.33565993 124.39337663 205.35009766 118.9765625 C205.36343736 114.49914117 205.39129445 110.02217552 205.43212891 105.54492188 C205.48148699 100.13267279 205.50622252 94.72083704 205.51332474 89.3083725 C205.52002969 87.24953447 205.53523199 85.1907054 205.55921555 83.13199615 C205.59092605 80.2453888 205.59089496 77.36036947 205.58349609 74.47363281 C205.59990143 73.62970978 205.61630676 72.78578674 205.63320923 71.91629028 C205.56916673 65.78689615 203.81862901 61.78756978 200 57 C198.02979126 55.10392572 198.02979126 55.10392572 195.87109375 53.90234375 C195.08976074 53.42394043 194.30842773 52.94553711 193.50341797 52.45263672 C192.67729004 51.9732666 191.85116211 51.49389648 191 51 C190.15711426 50.49355957 189.31422852 49.98711914 188.44580078 49.46533203 C185.66472255 47.80709691 182.86644495 46.18174847 180.0625 44.5625 C178.51018677 43.66168701 178.51018677 43.66168701 176.92651367 42.74267578 C173.61957779 40.82514413 170.31002618 38.91219151 167 37 C165.90751953 36.36787598 164.81503906 35.73575195 163.68945312 35.08447266 C152.14234597 28.40335338 140.58033354 21.74836749 129 15.125 C127.67319214 14.36582275 127.67319214 14.36582275 126.31958008 13.59130859 C125.51286865 13.13062988 124.70615723 12.66995117 123.875 12.1953125 C123.17117187 11.79328613 122.46734375 11.39125977 121.7421875 10.97705078 C113.06599298 6.11128138 104.72856276 9.37846032 96.8125 14.125 Z " fill="#FEFEFE" transform="translate(0,0)"/>
<path d="M0 0 C0.11585605 11.12654171 0.20469636 22.2529399 0.25906086 33.37996197 C0.28515341 38.54673761 0.32054551 43.71310056 0.37719727 48.87963867 C0.43152881 53.86578743 0.46142311 58.85153927 0.47438622 63.8379612 C0.48362402 65.74020448 0.50166353 67.64242607 0.52865028 69.54450035 C0.56495626 72.20942477 0.56994478 74.87270981 0.56762695 77.5378418 C0.58560333 78.32402893 0.60357971 79.11021606 0.62210083 79.92022705 C0.58430774 83.93684394 0.20084296 85.75185103 -2.35855103 88.91407776 C-5.10423526 91.0823134 -7.82045677 92.83122639 -10.88671875 94.515625 C-11.98951172 95.12664062 -13.09230469 95.73765625 -14.22851562 96.3671875 C-15.36998047 96.98851562 -16.51144531 97.60984375 -17.6875 98.25 C-18.84056641 98.88679688 -19.99363281 99.52359375 -21.18164062 100.1796875 C-29.19285714 104.59642857 -29.19285714 104.59642857 -32 106 C-32.22320235 100.84078257 -32.38610225 95.68439491 -32.49438477 90.52148438 C-32.53953126 88.76740561 -32.60086921 87.01366349 -32.67895508 85.26074219 C-33.30936152 70.74079247 -33.30936152 70.74079247 -30.21801758 66.63085938 C-27.86850981 65.04463457 -25.64244857 64.01278516 -23 63 C-21.69757653 62.26578375 -20.40598255 61.51184301 -19.12890625 60.734375 C-17.94205228 60.0694275 -16.75328062 59.40788984 -15.5625 58.75 C-10.99477277 56.28169312 -10.99477277 56.28169312 -7 53 C-7.32198966 49.90073181 -7.32198966 49.90073181 -8 47 C-10.97661545 46.01728964 -13.12447489 45.63885878 -16.07275391 46.85498047 C-18.37052465 48.14661466 -20.59432682 49.51355763 -22.8125 50.9375 C-24.33904394 51.88540384 -25.86634598 52.83208829 -27.39453125 53.77734375 C-28.06331299 54.20265381 -28.73209473 54.62796387 -29.42114258 55.06616211 C-31 56 -31 56 -32 56 C-35.81824807 23.25607517 -35.81824807 23.25607517 -29.74121094 14.890625 C-24.07990119 10.18152331 -17.64037717 7.45167894 -10.73730469 5.03027344 C-7.21434617 3.70429369 -3.61367314 0 0 0 Z " fill="#FAFAFA" transform="translate(194,72)"/>
<path d="M0 0 C5.81920294 2.32768118 11.05650928 5.28967567 16.5 8.375 C17.53253906 8.9525 18.56507813 9.53 19.62890625 10.125 C20.62792969 10.68960938 21.62695312 11.25421875 22.65625 11.8359375 C24.01459961 12.60236572 24.01459961 12.60236572 25.40039062 13.38427734 C26.25826172 13.91746582 27.11613281 14.4506543 28 15 C28.92514404 15.55026855 29.85028809 16.10053711 30.8034668 16.66748047 C33.43544562 19.46240385 33.56840652 21.32208948 33.56648254 25.09442139 C33.54067612 25.88310608 33.51486969 26.67179077 33.48828125 27.484375 C33.48120651 28.29996887 33.47413177 29.11556274 33.46684265 29.95587158 C33.43890544 32.55485681 33.37617281 35.15166872 33.3125 37.75 C33.28741605 39.51429175 33.26460304 41.27861735 33.24414062 43.04296875 C33.18908154 47.36281356 33.10281735 51.68103863 33 56 C28.89234845 54.48612351 25.16457052 52.49207235 21.38671875 50.3046875 C19.70002075 49.33764893 19.70002075 49.33764893 17.97924805 48.35107422 C16.56297119 47.53396973 15.14669434 46.71686523 13.6875 45.875 C6.9121875 41.976875 6.9121875 41.976875 0 38 C0 25.46 0 12.92 0 0 Z " fill="#FBFBFB" transform="translate(118,72)"/>
<path d="M0 0 C0 12.54 0 25.08 0 38 C-12.125 44.75 -12.125 44.75 -15.91455078 46.85449219 C-16.91470215 47.41297852 -17.91485352 47.97146484 -18.9453125 48.546875 C-19.96125488 49.11245117 -20.97719727 49.67802734 -22.02392578 50.26074219 C-24.14752665 51.50180311 -26.22047871 52.83123704 -28.25341797 54.21582031 C-31 56 -31 56 -33 56 C-33.24831278 50.85916149 -33.42912974 45.72184776 -33.54931641 40.57641602 C-33.59943045 38.82905259 -33.66754898 37.08210496 -33.75439453 35.33618164 C-34.45214374 20.94202583 -34.45214374 20.94202583 -31.11621094 16.48071289 C-28.50024154 14.61293972 -25.93061581 13.3141077 -23 12 C-21.15752347 10.91247913 -19.32409294 9.8094878 -17.5 8.69140625 C-15.66954844 7.64338811 -13.83620203 6.60040994 -12 5.5625 C-11.06027344 5.02173828 -10.12054688 4.48097656 -9.15234375 3.92382812 C-2.25712113 0 -2.25712113 0 0 0 Z " fill="#FBFBFB" transform="translate(107,72)"/>
<path d="M0 0 C3.63103587 0.52910418 6.51179698 2.24697346 9.68359375 4.01953125 C10.77607422 4.62990234 11.86855469 5.24027344 12.99414062 5.86914062 C14.13044922 6.51044922 15.26675781 7.15175781 16.4375 7.8125 C17.56994141 8.44220703 18.70238281 9.07191406 19.86914062 9.72070312 C24.8947982 12.54300817 29.56645576 15.29296729 34 19 C30.36335216 21.26420857 26.71608491 23.51009947 23.05908203 25.74121094 C21.63622109 26.61105573 20.21544978 27.4843246 18.79638672 28.36035156 C16.53759144 29.75150114 14.26986224 31.12699814 12 32.5 C11.28271729 32.94520996 10.56543457 33.39041992 9.82641602 33.84912109 C3.04968089 37.9111782 3.04968089 37.9111782 -1 37 C-3.79193877 35.69359502 -6.38304134 34.12431917 -9 32.5 C-9.74241943 32.05092285 -10.48483887 31.6018457 -11.24975586 31.13916016 C-13.50670419 29.77033031 -15.75391701 28.38656929 -18 27 C-19.33427718 26.18430956 -20.66889163 25.36917044 -22.00390625 24.5546875 C-25.01064656 22.71598718 -28.00810283 20.86278119 -31 19 C-27.81492176 16.48932433 -24.47711854 14.47081361 -20.95703125 12.4609375 C-20.38796555 12.13461334 -19.81889984 11.80828918 -19.23258972 11.47207642 C-17.42731484 10.43720981 -15.62007819 9.4058374 -13.8125 8.375 C-11.99442852 7.3366509 -10.17681131 6.29753333 -8.36027527 5.25650024 C-6.72016508 4.3167731 -5.07850296 3.37975608 -3.43676758 2.44287109 C-1.13092954 1.21365239 -1.13092954 1.21365239 0 0 Z " fill="#FBFBFB" transform="translate(111,119)"/>
<path d="M0 0 C0.22324847 5.01679391 0.38612008 10.03067531 0.49438477 15.05126953 C0.53952418 16.75686004 0.60085724 18.46210452 0.67895508 20.16650391 C1.30780916 34.24790318 1.30780916 34.24790318 -1.72045898 38.30493164 C-4.08125499 39.90580704 -6.35186701 40.94933398 -9 42 C-10.54597932 42.87037227 -12.08148557 43.75963224 -13.60546875 44.66796875 C-15.13061143 45.51180302 -16.65795932 46.35166404 -18.1875 47.1875 C-18.95513672 47.61224609 -19.72277344 48.03699219 -20.51367188 48.47460938 C-24.6330812 50.7443439 -28.78613829 52.90904356 -33 55 C-36.8144511 23.20801717 -36.8144511 23.20801717 -30.75732422 14.93798828 C-25.11517161 10.2511514 -18.68856182 7.4860434 -11.81982422 5.04638672 C-9.30384451 4.11275131 -7.14429808 3.06391323 -4.84765625 1.69140625 C-2 0 -2 0 0 0 Z " fill="#FBFBFB" transform="translate(151,148)"/>
<path d="M0 0 C4.26534591 1.2928874 7.89495855 2.92495994 11.73046875 5.1875 C12.78041016 5.80367187 13.83035156 6.41984375 14.91210938 7.0546875 C15.99298828 7.69664062 17.07386719 8.33859375 18.1875 9 C19.8262207 9.96292969 19.8262207 9.96292969 21.49804688 10.9453125 C29.39769345 15.5984623 29.39769345 15.5984623 33 18 C33.26667539 20.83727325 33.34791234 23.45383045 33.29296875 26.2890625 C33.28872391 27.10748627 33.28447906 27.92591003 33.28010559 28.76913452 C33.26328679 31.38808836 33.22562974 34.00627802 33.1875 36.625 C33.17245726 38.3984264 33.15876814 40.17186484 33.14648438 41.9453125 C33.11337292 46.2971703 33.06156952 50.64845551 33 55 C25.57488309 50.98158502 18.20369163 46.87905226 10.875 42.6875 C9.93140625 42.15060547 8.9878125 41.61371094 8.015625 41.06054688 C7.12101562 40.54943359 6.22640625 40.03832031 5.3046875 39.51171875 C4.50015137 39.05240967 3.69561523 38.59310059 2.86669922 38.11987305 C1 37 1 37 0 36 C-0.08855161 33.3337397 -0.11524673 30.69352886 -0.09765625 28.02734375 C-0.0962413 27.22970108 -0.09482635 26.43205841 -0.09336853 25.61024475 C-0.08775316 23.05262565 -0.07519812 20.49509282 -0.0625 17.9375 C-0.05748698 16.20768355 -0.05292373 14.47786574 -0.04882812 12.74804688 C-0.03777875 8.49866447 -0.02050386 4.24934688 0 0 Z " fill="#FBFBFB" transform="translate(74,148)"/>
<path d="M0 0 C2.07162346 1.04524314 4.10459545 2.16873382 6.10546875 3.34375 C6.95338737 3.83748108 6.95338737 3.83748108 7.81843567 4.34118652 C9.6121008 5.38749506 11.3998502 6.44345344 13.1875 7.5 C14.40000063 8.21030156 15.6128877 8.91994392 16.82617188 9.62890625 C19.04182135 10.92358872 21.25455757 12.22276974 23.46557617 13.52539062 C24.95389505 14.39134246 26.45987905 15.22993953 28 16 C28 16.66 28 17.32 28 18 C27.20303711 18.43868408 26.40607422 18.87736816 25.58496094 19.3293457 C22.61665622 20.96511433 19.64987918 22.60358893 16.68408203 24.24389648 C15.40245368 24.95201152 14.12023347 25.65905649 12.83740234 26.36499023 C10.98897541 27.38241375 9.14274167 28.40372175 7.296875 29.42578125 C6.18666992 30.03848877 5.07646484 30.65119629 3.93261719 31.2824707 C1.02319606 32.85829287 1.02319606 32.85829287 -1.08105469 34.84838867 C-1.71430664 35.22842041 -2.34755859 35.60845215 -3 36 C-5.38427734 35.38452148 -5.38427734 35.38452148 -8 34 C-8.92893066 33.51668213 -9.85786133 33.03336426 -10.81494141 32.53540039 C-14.08791632 30.71629157 -17.35878637 28.89372748 -20.625 27.0625 C-21.7696875 26.42892578 -22.914375 25.79535156 -24.09375 25.14257812 C-25.18945312 24.52962891 -26.28515625 23.91667969 -27.4140625 23.28515625 C-28.91380615 22.44803101 -28.91380615 22.44803101 -30.44384766 21.59399414 C-32.65451753 20.21543983 -34.28036029 18.93450347 -36 17 C-31.90292544 14.57945232 -27.8027993 12.16455601 -23.6953125 9.76171875 C-20.75641053 8.04084308 -17.83522239 6.2960953 -14.9296875 4.51953125 C-13.70321189 3.78370932 -12.47665407 3.04802438 -11.25 2.3125 C-10.16203125 1.64863281 -9.0740625 0.98476563 -7.953125 0.30078125 C-4.48142192 -1.2284213 -3.56800059 -1.04549814 0 0 Z " fill="#FBFBFB" transform="translate(73,45)"/>
<path d="M0 0 C2.93433386 1.01418762 5.41853082 2.32404393 8.09765625 3.89575195 C9.14179688 4.50612305 10.1859375 5.11649414 11.26171875 5.74536133 C12.34195313 6.38666992 13.4221875 7.02797852 14.53515625 7.6887207 C15.61539063 8.31842773 16.695625 8.94813477 17.80859375 9.59692383 C22.65511909 12.44799707 27.19986915 15.2780701 31.53515625 18.8762207 C27.64147868 21.12244105 23.74534464 23.36432151 19.84692383 25.60229492 C18.52235458 26.36348956 17.19845178 27.12584519 15.87524414 27.8894043 C13.96807059 28.98966915 12.05850238 30.08567222 10.1484375 31.1809082 C9.56177811 31.5205661 8.97511871 31.860224 8.37068176 32.21017456 C2.00792227 35.84677245 2.00792227 35.84677245 -1.46484375 36.8762207 C-3.99372794 35.72728793 -5.99933038 34.5955246 -8.27734375 33.0637207 C-9.59615454 32.22281921 -10.91652555 31.38436067 -12.23828125 30.5480957 C-12.92374023 30.10916992 -13.60919922 29.67024414 -14.31542969 29.21801758 C-17.93907892 26.95591215 -21.66900667 24.88798344 -25.40234375 22.8137207 C-26.10657471 22.42015381 -26.81080566 22.02658691 -27.53637695 21.62109375 C-29.17803645 20.7040514 -30.82125701 19.7898044 -32.46484375 18.8762207 C-32.46484375 18.2162207 -32.46484375 17.5562207 -32.46484375 16.8762207 C-31.73370361 16.46782959 -31.00256348 16.05943848 -30.24926758 15.63867188 C-27.51861267 14.11292792 -24.78835161 12.58648216 -22.05834961 11.05957031 C-20.30287186 10.07799475 -18.54694698 9.09721898 -16.79101562 8.11645508 C-15.67919922 7.49448242 -14.56738281 6.87250977 -13.421875 6.23168945 C-12.4006958 5.66087646 -11.3795166 5.09006348 -10.32739258 4.50195312 C-7.46473581 2.9322726 -7.46473581 2.9322726 -4.9050293 1.10400391 C-2.46484375 -0.1237793 -2.46484375 -0.1237793 0 0 Z " fill="#FBFBFB" transform="translate(156.46484375,44.123779296875)"/>
<path d="M0 0 C4.83660906 1.86347367 9.23206253 4.22836048 13.75 6.75 C14.51054688 7.16765625 15.27109375 7.5853125 16.0546875 8.015625 C17.60163421 8.87562249 19.13447503 9.76145641 20.65258789 10.67138672 C22.98255605 12.06038683 22.98255605 12.06038683 25.56420898 13.02001953 C28.4997021 14.39336655 30.0500345 15.386747 32 18 C33.12990632 24.15631061 32.84784931 30.14756532 32.5625 36.375 C32.51732523 38.08192625 32.47626581 39.78896669 32.43945312 41.49609375 C32.3405621 45.66689063 32.18546841 49.83219198 32 54 C28.42810267 52.87969715 25.19083949 51.71503896 21.9765625 49.79296875 C21.265 49.37080078 20.5534375 48.94863281 19.8203125 48.51367188 C19.09585938 48.07603516 18.37140625 47.63839844 17.625 47.1875 C16.90828125 46.76146484 16.1915625 46.33542969 15.453125 45.89648438 C13.29500538 44.6090141 11.14686668 43.30613227 9 42 C8.24557617 41.54834473 7.49115234 41.09668945 6.71386719 40.63134766 C5.99102539 40.19226074 5.26818359 39.75317383 4.5234375 39.30078125 C3.87036621 38.90673096 3.21729492 38.51268066 2.54443359 38.10668945 C1 37 1 37 0 35 C-0.08667255 32.37372867 -0.11560135 29.77437517 -0.09765625 27.1484375 C-0.0962413 26.37440582 -0.09482635 25.60037415 -0.09336853 24.80288696 C-0.08776403 22.32688558 -0.07521083 19.85097412 -0.0625 17.375 C-0.05748558 15.69791797 -0.05292257 14.02083453 -0.04882812 12.34375 C-0.03779315 8.22913194 -0.02052554 4.11458122 0 0 Z " fill="#FBFBFB" transform="translate(31,123)"/>
<path d="M0 0 C2.92611272 1.28253995 5.56204099 2.90600267 8.25 4.625 C9.7426524 5.54302926 11.23614393 6.45969554 12.73046875 7.375 C13.45411621 7.82359375 14.17776367 8.2721875 14.92333984 8.734375 C19.18468682 11.33146208 23.59402515 13.65902848 28 16 C28 16.66 28 17.32 28 18 C27.26885986 18.40839111 26.53771973 18.81678223 25.78442383 19.23754883 C23.05376892 20.76329278 20.32350786 22.28973854 17.59350586 23.81665039 C15.83802811 24.79822596 14.08210323 25.77900173 12.32617188 26.75976562 C11.21435547 27.38173828 10.10253906 28.00371094 8.95703125 28.64453125 C7.93585205 29.21534424 6.91467285 29.78615723 5.86254883 30.37426758 C2.99989206 31.9439481 2.99989206 31.9439481 0.44018555 33.7722168 C-2 35 -2 35 -4.39916992 34.91235352 C-7.69009039 33.75792098 -10.61898983 32.16229021 -13.61328125 30.40234375 C-14.53490303 29.87176109 -14.53490303 29.87176109 -15.47514343 29.33045959 C-17.424804 28.20602361 -19.36865368 27.07195172 -21.3125 25.9375 C-22.63829933 25.17057957 -23.96446754 24.40429646 -25.29101562 23.63867188 C-28.53166097 21.76646622 -31.76713245 19.88560176 -35 18 C-35 17.34 -35 16.68 -35 16 C-34.43603516 15.69296143 -33.87207031 15.38592285 -33.29101562 15.06958008 C-30.69262673 13.65307508 -28.09630946 12.23281255 -25.5 10.8125 C-24.613125 10.32974609 -23.72625 9.84699219 -22.8125 9.34960938 C-21.9359375 8.86943359 -21.059375 8.38925781 -20.15625 7.89453125 C-19.28226563 7.41580566 -18.40828125 6.93708008 -17.5078125 6.44384766 C-15.18131527 5.10439043 -12.99549988 3.65153497 -10.78125 2.13671875 C-7.02403847 -0.21035426 -4.47791574 -0.76622114 0 0 Z " fill="#FBFBFB" transform="translate(116,20)"/>
</svg>
